<?xml version="1.0" encoding="UTF-8" standalone="no"?>
<!-- Created with Inkscape (http://www.inkscape.org/) -->

<svg width="128mm" height="65.787308mm" viewBox="0 0 128 65.787308" version="1.1" id="svg5" xml:space="preserve"
  xmlns="http://www.w3.org/2000/svg"
  xmlns:svg="http://www.w3.org/2000/svg">
  <defs id="defs2" />
  <style>
      path {
        fill: #0d1117;
      }
      @media (prefers-color-scheme: dark) {
        path {
          fill: #f8f9fa;
        }
      }
  </style>
  <path style="stroke-width:0.161713" d="M 44.385792,65.489858 C 44.437714,65.32627 50.766968,50.535534 58.450804,32.621556 L 72.421412,0.05069139 77.221224,0.00784619 C 80.200225,-0.01874107 82.00028,0.02324846 81.966321,0.11851028 81.93625,0.20295384 75.581102,15.012971 67.84382,33.029674 L 53.776034,65.787305 h -4.742322 c -4.530598,0 -4.738108,-0.01326 -4.64792,-0.297435 z M 13.969432,46.851935 C 6.7774272,40.795664 0.69212428,35.644888 0.4465314,35.405761 L 0,34.970983 13.447992,23.655955 c 7.396397,-6.223263 13.528186,-11.334666 13.626197,-11.358667 2.380727,2.047304 4.016892,3.806066 6.392765,6.188761 l -10.041346,8.234353 c -8.016552,6.573928 -9.994418,8.26959 -9.808613,8.409108 0.128004,0.09612 4.651889,3.846308 10.05308,8.333754 l 9.820342,8.158992 -3.117457,3.120531 c -1.714601,1.716296 -3.16464,3.120537 -3.222311,3.120537 -0.05767,0 -5.989218,-4.955125 -13.181217,-11.011389 z m 83.826561,7.862541 -3.036117,-3.124699 9.954914,-8.207002 c 5.4752,-4.513856 9.93422,-8.25838 9.90894,-8.321175 -0.0253,-0.0628 -4.41223,-3.735136 -9.74878,-8.160759 -5.33655,-4.425623 -9.788534,-8.129435 -9.893294,-8.230693 -0.144463,-0.139628 0.558712,-0.956438 2.910846,-3.381275 l 3.101318,-3.197175 13.50309,11.371747 C 121.92361,29.717904 128,34.918059 128,35.019348 c 0,0.15456 -6.41418,5.609684 -24.11741,20.51132 -1.52416,1.28296 -2.83405,2.327222 -2.91084,2.320585 -0.0768,-0.0067 -1.505894,-1.418189 -3.175757,-3.136777 z" />
</svg>
